<?xml version="1.0" encoding="utf-8"?>
<!-- Generator: Adobe Illustrator 21.1.0, SVG Export Plug-In . SVG Version: 6.00 Build 0)  -->
<svg version="1.1" id="Layer_1" xmlns="http://www.w3.org/2000/svg" xmlns:xlink="http://www.w3.org/1999/xlink" x="0px" y="0px"
	 viewBox="0 0 40 40" style="enable-background:new 0 0 40 40;" xml:space="preserve">
<style type="text/css">
	.st0{fill:#E6E9F8;}
</style>
<rect x="25" y="22.8" class="st0" width="1.2" height="9"/>
<path class="st0" d="M23.7,16.4h-1.4v-3.3h1.4c1,0,1.4,0.4,1.4,1.6C25.2,16,24.7,16.4,23.7,16.4 M23.7,12.1h-2.6v9h1.1v-3.6h1.4
	c1.7,0,2.6-0.8,2.6-2.7C26.3,12.9,25.5,12.1,23.7,12.1"/>
<path class="st0" d="M20.4,27.3h-1.4v-3.5h1.4c1,0,1.4,0.4,1.4,1.6C21.8,26.7,21.3,27.3,20.4,27.3 M21.5,28.1
	c0.9-0.3,1.4-1.2,1.4-2.6c0-1.9-0.9-2.7-2.6-2.7h-2.6v9h1.2v-3.5h1.4l2,3.5h1.3L21.5,28.1z"/>
<path class="st0" d="M15.7,31.8v-5.4h-2.3v1h1.2v3.3h-1.7c-1.2,0-1.7-0.5-1.7-1.6v-3.8c0-1,0.6-1.6,1.7-1.6h2.9v-1h-2.9
	c-1.9,0-2.9,0.9-2.9,2.6v3.8c0,1.7,1,2.6,2.9,2.6H15.7"/>
<polygon class="st0" points="28.1,12.1 28.1,21.1 33.3,21.1 33.3,20.1 29.3,20.1 29.3,12.1 "/>
<path class="st0" d="M32.7,29.2c0,1-0.6,1.6-1.7,1.6h-1.7v-6.9H31c1.2,0,1.7,0.5,1.7,1.6V29.2 M31,22.8h-2.9v9H31
	c1.9,0,2.9-0.9,2.9-2.6v-3.8C33.9,23.7,32.9,22.8,31,22.8"/>
<polygon class="st0" points="8,19.4 1.8,18.6 1.9,21.1 6.2,21.1 "/>
<polygon class="st0" points="22.9,10.1 28.9,10.1 30.8,8.2 21.2,8.5 "/>
<polygon class="st0" points="19.1,19 19.1,6.1 18.1,3 15.3,3.9 17.3,20.8 "/>
<polygon class="st0" points="20.9,7.9 30.9,7.7 30.9,5.5 20.9,6.5 "/>
<polygon class="st0" points="37.6,16.3 32.9,17 34.7,18.8 37.8,18.8 "/>
<polygon class="st0" points="38.2,22.3 37.9,19.7 35.6,21.9 "/>
<polygon class="st0" points="36.4,5 32.7,5.4 32.7,16.5 37.5,15.8 "/>
<polygon class="st0" points="38.2,22.8 35.6,22.4 35.6,34.9 38.8,28.5 "/>
<polygon class="st0" points="16.7,21 14.7,4.1 9.9,5.7 9.9,19 11.9,21 "/>
<polygon class="st0" points="32,33.6 11.8,33.6 18.1,36.3 34.6,35.4 "/>
<polygon class="st0" points="23,38.4 34.8,39.4 34.8,35.9 19.2,36.8 "/>
<polygon class="st0" points="1.9,22.8 2,25.6 8.2,24.8 8.2,24.8 6.2,22.8 "/>
<polygon class="st0" points="2.1,27.7 8.2,31.4 8.2,25.4 2,26.1 "/>
<g>
	<polygon class="st0" points="8.2,6.2 1.4,8.4 1.8,18 8.2,18.8 	"/>
</g>
</svg>
